<?xml version="1.0" standalone="no"?>
<!DOCTYPE svg PUBLIC "-//W3C//DTD SVG 20010904//EN"
 "http://www.w3.org/TR/2001/REC-SVG-20010904/DTD/svg10.dtd">
<svg version="1.0" xmlns="http://www.w3.org/2000/svg"
 width="7512.000000pt" height="5000.000000pt" viewBox="0 0 7512.000000 5000.000000"
 preserveAspectRatio="xMidYMid meet">
<metadata>
Created by potrace 1.16, written by Peter Selinger 2001-2019
</metadata>
<g transform="translate(0.000000,5000.000000) scale(0.100000,-0.100000)"
fill="#000000" stroke="none">
<path d="M50647 42103 c-9 -16 -6 -183 3 -183 6 0 10 -18 10 -40 0 -51 17 -52
23 -2 2 20 3 11 1 -20 -5 -87 6 -178 22 -178 11 0 14 -19 14 -80 0 -47 4 -80
10 -80 6 0 10 -18 10 -40 0 -53 18 -51 22 3 2 23 3 -7 4 -68 0 -69 7 -134 17
-173 9 -35 17 -95 17 -133 0 -39 4 -69 10 -69 6 0 10 -18 10 -40 0 -53 18 -51
22 3 2 23 3 -7 4 -68 0 -69 7 -134 17 -173 9 -35 17 -95 17 -133 0 -61 2 -69
19 -69 15 0 19 -11 25 -61 3 -34 6 -88 6 -120 0 -46 3 -59 15 -59 12 0 15 -16
15 -80 0 -47 4 -80 10 -80 6 0 10 -18 10 -40 0 -51 17 -52 23 -2 2 20 3 12 1
-18 -4 -67 16 -260 28 -260 4 0 8 -13 8 -28 0 -15 5 -33 12 -40 9 -9 9 -12 0
-12 -7 0 -12 -16 -12 -40 0 -22 5 -40 10 -40 6 0 10 -18 10 -40 0 -51 17 -52
23 -2 2 20 3 11 1 -20 -5 -87 6 -178 22 -178 11 0 14 -19 14 -80 0 -47 4 -80
10 -80 6 0 10 -18 10 -40 0 -51 17 -52 23 -2 2 20 3 12 1 -18 -4 -67 16 -260
28 -260 4 0 8 -13 8 -28 0 -15 5 -33 12 -40 9 -9 9 -12 0 -12 -7 0 -12 -16
-12 -40 0 -22 5 -40 10 -40 6 0 10 -18 10 -40 0 -53 18 -51 22 3 2 23 4 -5 4
-63 0 -121 18 -220 40 -220 10 0 14 -12 14 -40 0 -22 -4 -40 -10 -40 -5 0 -10
-18 -10 -40 0 -32 4 -40 19 -40 15 0 19 -11 25 -61 3 -34 6 -88 6 -120 0 -46
3 -59 15 -59 12 0 15 -16 15 -80 0 -47 4 -80 10 -80 6 0 10 -18 10 -40 0 -51
17 -52 23 -2 2 20 3 11 1 -21 -5 -72 16 -249 29 -259 6 -3 17 -4 26 -1 10 4 9
0 -4 -10 -20 -15 -20 -16 5 -38 25 -21 25 -22 3 -16 -13 3 -23 1 -23 -4 0 -5
7 -9 16 -9 8 0 13 -4 9 -10 -3 -5 -13 -6 -22 -3 -11 4 -14 3 -9 -5 12 -19 23
-14 47 21 12 17 19 29 15 25 -11 -9 -41 21 -31 30 4 4 10 1 12 -5 3 -7 12 -13
22 -13 22 0 145 126 136 140 -3 5 -2 10 3 10 5 0 9 7 9 15 0 10 -6 14 -16 10
-10 -4 -7 2 7 15 12 11 23 26 23 33 4 39 9 60 29 136 12 47 19 93 17 103 -3
10 -2 16 2 14 11 -7 86 385 131 684 47 316 61 479 67 765 7 355 -13 591 -74
865 -84 379 -214 689 -418 995 -105 157 -252 338 -304 372 -19 13 -30 23 -26
23 4 0 0 9 -10 20 -10 11 -22 17 -28 13 -5 -3 -7 -1 -4 4 8 13 -27 46 -37 36
-4 -5 -6 -1 -4 7 2 8 -4 15 -12 15 -8 1 -14 6 -13 12 3 16 -66 75 -79 67 -6
-4 -8 -3 -5 3 9 14 -90 96 -107 90 -8 -3 -18 -1 -24 5 -6 6 -12 6 -16 -1 -9
-14 -26 -14 -26 0 0 5 5 7 12 3 8 -5 9 -2 5 11 -7 17 -6 17 18 1 31 -20 33
-11 3 15 -24 19 -43 25 -34 10 3 -4 0 -16 -7 -25 -12 -16 -14 -16 -26 -2 -11
14 -11 16 5 16 14 0 15 3 6 12 -7 7 -20 13 -30 13 -11 0 -17 8 -16 23 1 23 -2
28 -9 15z"/>
<path d="M26969 41294 c-1 -27 -3 -41 -6 -32 -4 17 -59 18 -900 20 -492 2
-897 0 -899 -4 -3 -4 -7 -52 -9 -105 -6 -137 -15 -1720 -15 -2668 l0 -789
-137 -136 c-196 -193 -338 -285 -553 -356 -79 -26 -97 -28 -250 -29 -144 0
-175 3 -245 23 -222 65 -460 224 -637 428 l-68 79 0 1745 c0 960 -3 1761 -6
1780 l-6 35 -925 -2 c-509 -1 -929 -5 -932 -9 -3 -3 -7 -804 -9 -1781 l-2
-1774 -128 -127 c-193 -193 -371 -308 -569 -369 -79 -24 -104 -27 -248 -27
-139 -1 -171 2 -240 22 -223 65 -464 226 -637 426 l-68 78 0 1502 0 1501 -45
-95 c-25 -52 -46 -99 -48 -104 -2 -8 -77 10 -77 18 0 3 45 101 124 269 l46 99
-1 201 c-1 111 -3 194 -6 184 -2 -9 -9 -14 -15 -11 -7 5 -9 0 -6 -14 4 -12 2
-22 -3 -22 -5 0 -9 7 -9 15 0 13 -109 15 -920 15 l-920 0 -1 -1477 c0 -813 -2
-1611 -5 -1774 l-4 -295 63 -75 c123 -144 296 -283 449 -360 88 -44 222 -86
321 -100 l87 -12 0 -257 0 -258 36 -6 c40 -8 40 3 -7 -136 -29 -83 -29 -87
-29 -307 l0 -223 6305 0 6305 0 0 639 0 640 28 3 27 3 -27 26 c-16 15 -28 29
-28 33 0 4 -12 23 -26 42 -15 19 -23 34 -19 34 11 0 35 -27 29 -33 -9 -8 35
-29 46 -22 16 10 1 25 -18 18 -9 -3 -14 -3 -10 1 6 8 -22 35 -121 116 -48 39
-55 42 -74 30 -15 -9 -22 -10 -25 -1 -2 6 -7 9 -12 6 -5 -3 -7 1 -6 7 3 20 20
21 27 1 5 -16 7 -15 18 5 11 21 10 24 -7 29 -11 2 -25 16 -32 29 -13 23 -15
23 -32 7 -10 -9 -18 -14 -19 -12 0 2 -2 15 -3 28 -3 22 -2 23 11 6 7 -11 13
-13 13 -7 0 19 -42 72 -51 66 -5 -3 -9 345 -9 773 0 1396 -12 2727 -24 2735
-8 5 -7 8 2 8 15 0 16 46 1 56 -8 4 -9 0 -4 -15 5 -15 3 -19 -8 -16 -14 6 -16
32 -4 53 6 8 3 10 -9 5 -12 -5 -15 -3 -9 6 4 8 2 17 -6 22 -17 11 -45 12 -35
2 4 -5 12 -8 17 -8 5 0 9 -4 9 -10 0 -5 -4 -10 -9 -10 -5 0 -13 -3 -17 -7 -14
-15 -26 -8 -14 7 10 12 9 16 -5 21 -23 9 -45 -14 -25 -26 9 -6 -307 -10 -837
-10 -469 0 -859 -3 -867 -6 -10 -4 -16 -1 -16 7 0 11 -3 11 -10 -1 -6 -10 -10
-658 -10 -1782 l0 -1766 -27 -34 c-93 -117 -323 -313 -448 -380 -167 -91 -263
-119 -436 -125 -160 -6 -253 9 -389 63 -201 80 -418 245 -558 422 l-42 54 0
1773 c0 1172 -3 1776 -10 1780 -6 4 -10 -15 -10 -51 0 -77 -6 -66 -14 25 -7
88 -16 104 -17 35z m-7871 -1509 c2 -2 -13 -51 -32 -111 -44 -137 -103 -349
-146 -521 -29 -119 -35 -133 -54 -133 -50 1 -52 11 -27 117 43 180 129 486
186 660 3 9 12 10 37 1 18 -6 34 -12 36 -13z m-360 -1549 c2 -3 -3 -62 -12
-133 -24 -191 -46 -456 -46 -560 l0 -93 -40 0 -40 0 6 93 c15 261 40 547 60
671 6 36 7 38 37 32 17 -3 32 -8 35 -10z"/>
<path d="M49631 41293 c0 -29 -5 -53 -10 -53 -15 0 -21 29 -11 56 7 17 7 23 0
19 -6 -3 -10 -13 -10 -21 0 -12 -121 -14 -884 -14 l-885 0 -4 -22 -4 -23 -2
23 c-1 26 -7 27 -27 8 -12 -13 -14 -263 -14 -1780 l0 -1765 58 -68 c185 -214
412 -367 647 -435 68 -20 103 -23 235 -23 133 0 167 4 239 24 212 61 449 221
644 437 l67 75 -1 1312 c-1 1364 -11 2193 -27 2262 l-10 40 -1 -52z"/>
<path d="M32711 41282 c-1 -13 -5 -20 -11 -17 -5 3 -10 1 -10 -4 0 -6 7 -11
16 -11 8 0 12 -5 9 -10 -4 -6 -11 -8 -16 -5 -5 4 -9 -274 -9 -719 l0 -724 98
-60 c147 -91 312 -182 464 -258 l136 -68 -15 -30 c-9 -17 -17 -32 -18 -34 -8
-9 -413 206 -581 308 -38 23 -72 44 -76 47 -5 2 -8 -444 -8 -991 l0 -996 69
-77 c86 -97 100 -111 183 -177 222 -178 446 -266 679 -266 169 0 286 28 439
105 148 74 259 160 413 319 l97 100 -2 595 -3 595 -50 14 c-69 18 -364 108
-397 121 -25 9 -26 12 -16 44 l10 34 87 -28 c47 -15 142 -44 211 -63 69 -20
133 -39 143 -42 16 -5 17 54 17 1145 l0 1151 -924 0 c-730 0 -925 3 -929 13
-3 6 -6 2 -6 -11z"/>
<path d="M37404 41283 l-932 -3 -6 -23 c-3 -12 -6 -815 -6 -1785 l0 -1763 128
-128 c179 -180 339 -286 521 -345 115 -37 171 -46 295 -46 151 0 272 30 421
104 140 70 260 161 403 304 l112 113 0 1790 c0 984 -1 1788 -2 1787 -2 -2
-422 -4 -934 -5z m46 -2708 c65 -7 466 -54 523 -61 45 -6 47 -8 47 -40 0 -18
-3 -35 -7 -37 -5 -2 -69 4 -143 14 -125 17 -603 69 -636 69 -9 0 -14 12 -14
36 l0 37 93 -7 c50 -4 112 -9 137 -11z"/>
<path d="M42090 41270 c-2 -18 -4 -20 -7 -7 -4 16 -57 17 -922 17 l-918 0 -6
-1022 c-4 -562 -7 -1362 -7 -1778 l0 -758 73 -83 c176 -201 416 -361 633 -421
66 -19 105 -22 239 -22 146 0 168 3 249 28 213 65 415 200 612 409 l86 92 -7
1740 c-6 1482 -12 1939 -25 1805z m-1630 -3540 c118 -66 319 -197 425 -276 43
-32 84 -62 90 -66 6 -5 0 -17 -16 -34 l-26 -26 -98 73 c-124 91 -294 200 -447
285 -65 37 -117 69 -116 73 2 3 10 18 17 33 l14 28 31 -19 c17 -10 74 -42 126
-71z"/>
<path d="M44038 41282 l-27 -3 -1 -1782 0 -1782 67 -77 c92 -104 189 -188 305
-265 113 -74 193 -112 315 -150 79 -24 104 -27 243 -27 133 -1 166 2 233 22
227 66 417 189 621 403 l96 101 0 1784 c-1 1562 -2 1784 -15 1784 -10 0 -15
-11 -16 -32 l-2 -33 -6 30 -6 30 -890 0 c-489 0 -902 -1 -917 -3z"/>
<path d="M31720 37150 l-45 -7 45 -3 c48 -3 43 -5 -32 -15 l-48 -6 0 -560 0
-559 65 0 65 0 -2 575 -3 574 25 4 25 4 -25 0 c-14 0 -45 -3 -70 -7z"/>
<path d="M43933 35992 c-1124 -1 -2043 -5 -2043 -10 0 -4 61 -5 135 -4 93 3
135 1 135 -7 0 -7 -39 -11 -117 -11 -65 0 -123 -4 -130 -8 -6 -4 46 -6 115 -4
70 2 131 8 137 13 13 13 27 11 50 -7 17 -13 18 -16 5 -24 -8 -5 -25 -10 -38
-10 l-23 0 1 -253 1 -254 27 5 c24 5 25 6 7 14 -19 7 -19 8 -1 5 11 -1 20 -10
22 -20 1 -10 -3 -17 -9 -16 -7 1 -21 1 -32 0 -19 -2 -19 -2 -2 -12 9 -6 15
-15 11 -21 -4 -6 -9 -5 -15 3 -5 8 -9 -676 -9 -1518 0 -1030 3 -1533 10 -1534
5 -1 15 -2 22 -3 6 0 13 -7 16 -15 3 -8 0 -11 -7 -7 -6 4 -11 1 -11 -8 0 -9
-7 -16 -15 -16 -8 0 -15 -5 -15 -10 0 -7 6 -7 18 -2 9 5 24 7 32 5 13 -4 13
-3 0 6 -9 7 -10 11 -3 11 6 0 15 -4 18 -10 3 -5 11 -10 16 -10 6 0 7 6 3 13
-6 9 -4 9 7 1 26 -20 49 -24 42 -8 -3 8 -8 12 -11 9 -6 -6 -42 24 -42 36 0 9
27 6 37 -6 4 -4 2 -5 -4 -1 -7 4 -13 3 -13 -3 0 -15 18 -23 25 -11 3 5 13 10
21 10 8 0 12 -5 9 -10 -4 -6 -12 -8 -18 -4 -7 3 -4 -1 5 -9 15 -12 15 -16 3
-28 -7 -8 -16 -32 -19 -54 -4 -22 -9 -55 -12 -74 -6 -31 -5 -32 15 -22 11 7
21 8 21 3 0 -5 -11 -14 -24 -20 -25 -11 -48 -80 -50 -152 0 -21 -5 -36 -9 -33
-5 3 -4 -4 3 -16 6 -12 9 -27 6 -34 -2 -7 -5 -3 -6 8 -1 15 -4 12 -15 -12 -14
-34 -10 -77 8 -66 6 3 7 1 3 -5 -4 -6 -13 -9 -21 -5 -10 3 -15 -2 -16 -18 -1
-13 -2 -33 -3 -44 -1 -22 12 -45 25 -45 5 0 9 7 9 16 0 9 -6 14 -12 11 -8 -3
-14 5 -15 22 -1 25 -1 25 13 6 13 -17 16 -18 25 -5 7 11 7 6 2 -15 -4 -16 -7
-40 -8 -53 0 -19 -1 -20 -12 -6 -10 14 -12 13 -15 -8 -2 -15 -10 -23 -23 -23
-19 0 -20 -6 -18 -85 0 -47 2 -1544 2 -3327 1 -2570 4 -3243 14 -3244 6 -1 16
-1 20 0 5 1 5 -4 1 -11 -5 -7 -9 -17 -10 -23 0 -5 -2 -16 -2 -23 -1 -7 -6 -10
-12 -7 -5 3 -10 1 -10 -4 0 -6 5 -11 11 -11 6 0 7 -5 2 -12 -13 -22 -13 -191
0 -207 8 -10 9 -13 0 -8 -7 5 -9 0 -6 -13 3 -11 9 -18 13 -15 6 4 7 -18 1 -65
-1 -12 -3 -12 -10 -2 -5 8 -9 -11 -10 -47 -1 -34 3 -61 8 -61 5 0 7 19 4 43
-3 27 -1 37 5 29 6 -9 9 -5 10 15 0 15 5 38 9 51 l9 23 26 -21 c15 -11 39 -46
55 -78 27 -55 28 -63 27 -202 0 -99 -5 -162 -16 -197 l-15 -53 68 0 c74 0 80
3 128 73 22 32 31 63 41 132 15 104 35 151 92 205 115 112 216 51 226 -138 5
-98 -8 -170 -49 -261 -16 -36 -28 -68 -27 -72 6 -14 313 -251 406 -313 198
-132 316 -170 507 -164 201 6 231 29 385 299 172 302 270 538 306 740 9 52 18
100 20 107 3 9 513 12 2509 12 l2505 0 0 -1005 0 -1005 -2792 -1 c-1536 0
-2802 -3 -2813 -5 -29 -7 -1307 -61 -1322 -56 -9 3 -10 9 -3 23 6 10 12 45 13
78 1 32 5 55 8 49 6 -9 22 28 20 45 -1 4 4 7 10 7 6 0 9 7 6 15 -4 8 -2 17 4
20 5 4 7 11 4 16 -3 5 1 6 10 3 14 -6 14 -8 -2 -20 -10 -7 -13 -13 -8 -14 22
0 32 17 33 53 1 31 -3 40 -23 49 -19 9 -29 7 -51 -7 -14 -9 -24 -12 -20 -7 3
6 1 12 -6 15 -7 2 -5 3 4 2 24 -4 32 11 10 18 -9 2 -26 8 -36 13 -14 5 -17 4
-12 -4 11 -18 0 -14 -15 5 -12 14 -12 16 1 9 8 -4 6 0 -5 8 -11 9 -25 14 -32
12 -7 -3 -15 0 -19 6 -5 7 -2 8 5 3 10 -6 11 -3 3 11 -12 23 -52 60 -52 49 0
-4 -7 -2 -15 5 -8 7 -15 17 -15 23 0 6 7 2 15 -9 8 -10 15 -14 15 -9 0 6 -11
22 -24 37 -14 14 -22 29 -19 32 4 3 1 6 -6 6 -7 0 -10 3 -8 8 3 4 -3 22 -13
40 -12 22 -20 28 -24 20 -3 -7 -4 -1 -1 13 2 14 -2 35 -11 47 -8 12 -12 27 -9
32 9 14 -7 12 -26 -3 -15 -11 -17 -52 -18 -379 -2 -354 -1 -366 17 -361 12 3
19 -1 19 -10 0 -15 -21 -13 -44 5 -7 6 -18 8 -25 5 -8 -3 -6 -6 5 -6 10 -1 16
-5 12 -10 -3 -5 0 -11 7 -14 7 -2 0 -2 -16 1 -19 3 -26 1 -22 -7 4 -6 3 -11
-2 -11 -15 0 -23 28 -9 33 8 2 8 5 -1 11 -7 4 -12 3 -12 -3 0 -6 -11 -6 -30
-1 -23 7 -30 5 -30 -6 0 -8 4 -14 9 -14 5 0 18 -3 28 -6 15 -5 15 -4 3 5 -9 7
-10 11 -3 11 6 0 14 -4 17 -8 10 -16 -11 -31 -49 -34 -22 -2 -46 -7 -53 -12
-6 -4 -12 -3 -12 3 0 15 36 32 57 26 10 -3 5 1 -12 9 -24 12 -26 15 -10 16 17
0 17 2 5 10 -22 14 -30 12 -30 -6 0 -18 -27 -43 -47 -44 -7 0 -13 5 -13 11 0
5 4 8 9 5 11 -7 43 28 34 37 -3 4 -15 0 -25 -9 -17 -16 -18 110 -19 3972 -1
2194 -2 4003 -2 4021 0 17 -5 31 -10 30 -5 -1 -12 4 -15 12 -3 8 0 11 7 7 17
-11 13 10 -4 24 -13 11 -14 10 -9 -5 5 -13 4 -16 -4 -11 -17 10 -15 -4 3 -24
13 -15 15 -470 15 -4053 0 -3229 2 -4037 12 -4037 7 0 5 -5 -5 -11 -11 -6 -29
-9 -43 -6 -13 2 -21 0 -18 -4 3 -5 -5 -9 -18 -10 -35 -1 -58 -5 -118 -22 -40
-10 -57 -11 -62 -3 -6 8 -8 7 -8 -1 0 -7 -4 -13 -10 -13 -5 0 -7 7 -3 16 4 10
13 14 27 10 18 -4 17 -2 -7 20 -15 13 -33 24 -40 24 -7 -1 -2 -6 11 -14 20
-11 21 -14 9 -25 -12 -10 -16 -9 -20 1 -2 7 -2 1 0 -14 3 -19 -1 -28 -14 -32
-57 -16 -435 -85 -640 -115 -111 -17 -148 -18 -230 -10 -267 27 -791 176
-1341 380 -140 52 -147 56 -315 182 -238 180 -404 315 -482 394 -63 62 -203
228 -716 849 -228 275 -329 391 -372 425 l-29 22 -101 -53 c-134 -70 -301
-169 -409 -242 -80 -55 -168 -136 -168 -156 0 -43 404 -557 945 -1203 187
-223 647 -698 903 -932 312 -286 671 -499 1997 -1187 382 -198 564 -299 582
-322 22 -27 102 -1210 109 -1618 l6 -295 -121 -1050 c-204 -1778 -331 -2943
-331 -3039 0 -24 6 -39 21 -50 19 -13 21 -21 15 -58 -83 -512 -99 -632 -115
-898 -15 -227 -38 -759 -56 -1290 -36 -1055 -47 -1304 -70 -1635 -14 -192 -54
-784 -90 -1315 -137 -2031 -227 -3228 -265 -3508 -6 -40 -10 -78 -10 -83 0 -5
38 -9 85 -9 67 0 85 -3 85 -14 0 -8 3 -22 6 -31 8 -21 -190 -223 -301 -307
-132 -101 -213 -130 -585 -213 -527 -118 -617 -150 -660 -235 -87 -170 99
-289 514 -329 137 -14 1582 -14 1684 -1 89 12 154 39 178 75 42 64 24 289 -51
660 -25 121 -54 254 -64 295 -10 41 -16 80 -14 87 3 9 41 13 121 15 l116 3 8
30 c52 186 228 873 298 1167 251 1053 406 1857 495 2563 28 230 45 480 55 809
12 391 33 626 81 896 69 381 129 653 216 978 l46 172 556 0 c306 0 561 -4 567
-8 6 -4 46 -124 88 -267 179 -597 373 -1202 470 -1463 52 -140 102 -332 175
-672 141 -661 431 -2254 681 -3735 39 -231 73 -433 76 -448 6 -27 9 -29 44
-25 37 3 39 2 45 -30 5 -30 1 -39 -55 -99 -81 -89 -192 -189 -272 -247 -90
-64 -188 -107 -399 -176 -290 -96 -355 -135 -410 -245 -27 -55 -31 -73 -27
-118 6 -75 34 -109 121 -151 133 -65 154 -67 852 -77 763 -11 892 -5 983 51
54 33 66 75 59 220 -7 144 -39 339 -102 626 -25 111 -45 215 -45 233 0 29 2
31 39 31 l39 0 6 93 c6 92 25 557 47 1162 7 176 12 536 13 800 1 442 -1 495
-22 665 -43 354 -103 780 -242 1715 -76 517 -146 994 -154 1060 -16 117 -23
170 -66 495 -20 145 -70 573 -70 595 0 7 907 10 2702 10 2579 0 2708 1 2813
18 616 104 1109 440 1410 964 136 237 233 541 249 788 6 85 23 3012 18 3153
-2 85 14 116 21 40 l4 -43 3 45 c2 38 5 32 15 -45 10 -72 13 -80 14 -42 l1 47
525 0 525 0 0 40 c0 22 5 40 10 40 6 0 11 -37 12 -87 1 -49 3 -68 5 -43 1 25
6 83 10 130 l8 85 6 -85 c3 -47 6 263 7 688 l2 772 -590 0 -590 0 0 7758 c0
5244 -3 7786 -10 7847 -74 642 -453 1197 -1030 1508 -169 91 -392 165 -615
204 -93 17 -266 18 -2635 18 -1394 0 -3454 -1 -4577 -3z m-1653 -564 c0 -5 7
-8 16 -6 10 2 19 -4 21 -12 4 -13 3 -13 -6 0 -9 12 -11 11 -11 -8 0 -15 4 -21
12 -16 7 4 8 3 4 -5 -4 -6 -2 -19 6 -28 7 -9 8 -14 2 -10 -20 12 -3 -44 17
-56 23 -14 25 -29 4 -21 -8 4 -15 1 -15 -5 0 -6 3 -11 8 -11 4 0 8 -17 10 -38
1 -20 9 -42 17 -48 8 -6 15 -20 14 -30 0 -18 -1 -18 -10 1 -8 17 -9 16 -4 -5
6 -22 9 -42 14 -75 1 -5 6 -3 11 5 6 9 10 10 10 3 0 -6 -4 -15 -10 -18 -5 -3
-10 -11 -10 -16 0 -6 4 -8 9 -5 4 3 6 -5 4 -17 -2 -12 1 -42 7 -67 6 -25 13
-58 14 -75 13 -119 19 -162 27 -175 7 -13 8 -13 9 0 0 9 7 4 15 -12 15 -28 11
-58 -8 -58 -7 0 -7 4 1 12 17 17 15 29 -3 22 -8 -4 -15 -12 -15 -20 0 -15 -9
-18 -53 -15 -17 1 -26 -3 -22 -9 3 -5 1 -10 -6 -10 -7 0 -10 -2 -7 -5 3 -3 17
-1 30 4 22 8 27 6 37 -17 10 -24 10 -25 -3 -8 -13 16 -42 14 -32 -3 3 -4 -8
-7 -24 -7 -16 0 -27 3 -24 8 3 4 0 8 -7 8 -9 0 -8 4 3 13 9 6 19 26 22 42 5
22 4 26 -4 15 -8 -13 -10 -13 -10 3 0 9 5 17 10 17 6 0 10 5 10 11 0 5 -4 8
-8 5 -5 -3 -7 9 -4 27 3 25 1 29 -7 17 -7 -9 -11 -10 -11 -3 0 6 5 15 10 18 6
4 4 12 -5 21 -8 9 -15 21 -15 27 0 7 5 6 11 -3 8 -11 9 -6 5 20 -3 19 -8 60
-11 90 -3 30 -10 56 -15 58 -5 2 -7 9 -4 16 3 7 0 33 -6 57 -7 24 -12 52 -13
62 -1 9 -5 17 -10 17 -5 0 -6 -15 -3 -32 6 -33 6 -33 -5 -5 -8 21 -8 31 1 42
9 11 9 15 1 15 -6 0 -11 5 -11 11 0 5 4 8 9 4 10 -6 -2 45 -15 67 -5 7 -9 29
-10 47 0 19 -7 37 -14 39 -8 3 -8 7 -2 11 7 4 5 16 -4 36 -8 18 -12 21 -8 8 4
-18 2 -22 -10 -17 -12 5 -16 -1 -16 -25 0 -17 -5 -31 -11 -31 -18 0 1 63 31
100 16 19 34 34 40 32 7 -2 10 3 7 11 -3 8 1 14 9 14 8 0 14 -4 14 -9z m4380
-1343 c489 -68 924 -232 1330 -500 486 -322 890 -795 1130 -1325 210 -463 300
-928 279 -1450 -27 -686 -285 -1348 -732 -1884 -118 -142 -309 -328 -454 -444
-801 -635 -1835 -845 -2824 -572 -222 61 -512 181 -679 280 -30 18 -75 44
-100 58 -308 172 -707 539 -926 852 -167 239 -230 350 -340 595 -194 436 -284
943 -253 1440 14 237 9 194 50 414 36 196 107 439 175 601 36 86 162 336 209
415 132 222 278 408 480 611 211 212 350 323 595 475 391 242 867 401 1345
449 137 13 580 4 715 -15z m-4185 -389 c0 -79 -3 -143 -6 -141 -3 2 -5 -25 -5
-60 1 -35 4 -61 9 -58 13 8 8 -5 -9 -22 -15 -15 -15 -17 2 -31 14 -11 15 -14
4 -11 -12 3 -17 -3 -18 -24 -1 -17 3 -29 9 -29 8 0 6 -7 -4 -18 -19 -20 -23
-52 -7 -52 5 0 8 6 6 13 -1 6 -1 9 1 4 3 -4 9 -4 15 -1 5 3 4 -3 -3 -14 -7
-12 -17 -18 -21 -16 -4 3 -8 0 -8 -5 0 -6 6 -11 13 -11 9 0 9 -2 -1 -8 -7 -5
-10 -16 -6 -25 3 -9 10 -14 15 -11 5 3 9 0 9 -6 0 -7 -8 -9 -19 -5 -14 4 -19
0 -19 -17 -1 -13 -3 -47 -5 -75 -3 -32 0 -53 5 -53 6 0 8 9 5 20 -3 11 -1 20
4 20 5 0 9 -12 9 -26 0 -17 4 -24 13 -21 8 3 12 -5 12 -24 0 -36 -11 -38 -19
-3 -6 23 -11 26 -39 20 -22 -4 -27 -3 -17 3 21 14 9 21 -38 24 -40 2 -40 3
-26 24 16 25 19 57 4 48 -14 -8 -13 1 3 33 8 15 15 49 16 77 2 27 5 53 8 58 6
9 -16 37 -29 37 -5 0 -6 -5 -2 -12 4 -6 3 -8 -3 -5 -14 9 -9 50 8 55 11 3 11
1 1 -5 -10 -7 -8 -13 6 -26 18 -17 19 -16 20 10 0 16 3 50 5 78 4 31 1 55 -6
64 -10 12 -9 13 2 6 11 -6 13 -3 9 13 -4 12 -2 25 3 28 12 7 12 24 0 24 -5 0
-13 -10 -17 -22 -7 -24 -22 -38 -39 -38 -5 0 -3 5 5 10 12 7 12 12 2 22 -6 6
-12 17 -12 23 0 5 5 2 11 -8 10 -17 12 -17 33 6 19 20 21 34 21 103 -1 43 4
85 9 93 6 8 10 16 9 18 -2 1 -3 23 -3 48 l0 45 38 0 37 0 0 -144z m5308
-11595 l1617 -1 0 -595 0 -595 -1709 0 -1710 0 -46 143 c-140 431 -274 787
-356 948 -27 52 -49 98 -49 101 0 4 143 5 318 3 174 -1 1045 -3 1935 -4z
m-2042 -6723 c1 -343 4 -614 6 -603 23 92 101 321 128 376 30 58 35 79 35 135
0 52 3 64 13 56 39 -31 260 -93 531 -148 93 -19 170 -35 172 -36 1 -2 18 -39
37 -83 40 -91 62 -158 87 -259 l18 -71 1 193 c1 120 5 192 11 192 6 0 8 23 6
58 -2 31 -8 227 -12 435 l-7 377 241 0 242 0 0 -1175 0 -1175 -240 0 -240 0 0
240 0 241 -21 -20 c-24 -22 -77 -34 -112 -26 -19 5 -29 1 -41 -16 -13 -20 -16
-55 -16 -221 l0 -198 -85 0 -85 0 0 184 c0 180 -1 184 -22 198 -19 12 -28 13
-53 2 -16 -7 -42 -13 -57 -14 l-28 0 0 -185 0 -185 -170 0 -170 0 0 256 0 256
-35 -31 c-39 -34 -84 -41 -105 -16 -9 11 -11 34 -6 78 17 165 17 172 -3 247
l-19 75 -1 -432 -1 -433 -170 0 c-168 0 -170 0 -175 23 -24 103 -88 690 -83
758 l3 43 58 14 c55 14 58 16 53 41 -3 14 -35 200 -71 413 l-65 387 0 323 c0
178 0 329 0 336 0 9 52 12 225 12 l225 0 1 -622z m1989 -553 l0 -1175 -180 0
-180 0 0 1175 0 1175 180 0 180 0 0 -1175z m330 0 l0 -1175 -90 0 -90 0 0
1175 0 1175 90 0 90 0 0 -1175z m390 0 l0 -1175 -125 0 -125 0 0 1175 0 1175
125 0 125 0 0 -1175z m950 -10 l0 -1170 -390 -3 -390 -2 0 1175 0 1175 390 -2
391 -3 -1 -1170z"/>
<path d="M46025 33634 c-380 -38 -705 -133 -1025 -301 -146 -76 -358 -218
-474 -316 -108 -92 -298 -286 -380 -389 -226 -282 -409 -645 -495 -984 -49
-188 -50 -197 -72 -367 -29 -225 -23 -543 15 -760 49 -282 106 -458 244 -757
67 -145 217 -373 352 -535 332 -398 809 -711 1303 -854 256 -75 475 -105 757
-105 218 0 331 11 526 50 1021 201 1849 1001 2089 2019 47 198 67 374 68 600
0 228 -11 353 -49 543 -202 1000 -958 1809 -1935 2071 -230 62 -389 83 -649
86 -129 2 -253 1 -275 -1z"/>
<path d="M41720 35923 l120 -4 0 -2576 c0 -2441 -1 -2577 -17 -2589 -16 -12
-16 -13 -1 -8 10 3 18 -1 21 -13 3 -10 4 1154 3 2587 l-1 2605 -123 0 -122 1
120 -3z"/>
<path d="M41905 35918 c-7 -19 -11 -5207 -4 -5202 3 2 6 -10 7 -26 0 -17 -4
-30 -9 -30 -14 0 -11 -20 6 -36 13 -13 15 298 15 2645 0 1464 -2 2661 -5 2661
-3 0 -8 -6 -10 -12z"/>
<path d="M11230 35524 c-30 -19 -56 -39 -58 -44 -6 -17 195 -297 380 -530 224
-282 700 -756 1013 -1009 11 -9 59 -48 105 -87 108 -90 270 -216 270 -210 0 3
17 -10 38 -29 25 -24 43 -33 57 -29 13 3 16 2 8 -3 -9 -6 -2 -17 22 -36 37
-29 50 -34 39 -14 -4 6 2 4 14 -6 12 -11 26 -16 34 -12 10 6 10 5 1 -5 -10
-11 -15 -11 -30 0 -12 9 -10 6 3 -9 18 -19 25 -21 43 -12 12 7 18 17 15 23 -4
7 -3 8 4 4 18 -11 14 -24 -9 -31 -19 -6 -19 -8 -4 -25 27 -30 55 -32 65 -4 8
21 31 30 63 25 4 0 6 3 5 8 -2 5 6 16 16 24 18 13 17 14 -18 12 -31 -3 -35 -1
-25 11 6 8 10 16 8 18 -33 32 -124 94 -132 89 -6 -3 -7 -1 -4 4 4 6 -5 19 -20
29 -15 9 -36 25 -47 35 -10 10 -24 16 -29 12 -6 -3 -7 -1 -4 4 4 6 -24 33 -62
61 -38 28 -127 99 -197 158 -71 60 -169 142 -219 184 -255 214 -606 563 -826
820 -146 170 -375 476 -434 578 -11 17 -22 32 -25 32 -3 0 -30 -16 -60 -36z"/>
<path d="M32125 34100 c11 -5 16 -9 10 -9 -6 -1 -8 -60 -5 -168 l5 -168 130
-6 c72 -4 1175 -10 2453 -14 l2322 -8 0 192 0 191 -2467 -1 c-1386 0 -2459 -4
-2448 -9z m195 -180 l0 -160 -80 0 -80 0 0 160 0 160 80 0 80 0 0 -160z"/>
<path d="M36719 32915 c-3 -2 -1084 -5 -2402 -5 -1482 -1 -2397 -5 -2397 -11
0 -5 46 -9 105 -9 l105 0 2 -691 c2 -426 -1 -694 -7 -700 -5 -5 44 -10 135
-11 l145 -2 -145 -6 c-413 -15 134 -20 2353 -23 l2427 -2 0 733 0 732 -158 0
c-87 0 -161 -2 -163 -5z m-4399 -715 l0 -680 -80 0 -80 0 0 680 0 680 80 0 80
0 0 -680z"/>
<path d="M41842 30474 c-5 -9 -7 -26 -5 -38 4 -17 3 -18 -6 -6 -7 9 -11 10
-11 3 0 -6 4 -14 9 -17 12 -8 8 -51 -6 -51 -6 0 -14 -3 -18 -7 -4 -3 1 -5 12
-4 17 3 18 -117 23 -3938 l5 -3941 5 4008 c3 2204 4 4007 3 4007 -1 0 -6 -7
-11 -16z"/>
<path d="M32830 28690 l0 -100 795 0 795 0 0 100 0 100 -795 0 -795 0 0 -100z"/>
<path d="M9961 28687 l-30 -44 97 -60 c321 -200 652 -316 992 -347 118 -11
170 -15 170 -11 0 1 -32 30 -71 63 -63 53 -77 61 -127 67 -308 36 -650 160
-913 330 -38 25 -74 45 -79 45 -5 0 -22 -19 -39 -43z"/>
<path d="M36595 26938 c-3 -13 -62 -273 -131 -578 -69 -305 -128 -558 -130
-562 -3 -5 -1537 -8 -3410 -8 l-3404 0 0 -119 c0 -117 4 -136 175 -933 97
-447 241 -1114 320 -1483 79 -368 181 -839 225 -1045 45 -206 96 -447 115
-535 19 -88 59 -275 90 -415 40 -187 55 -275 55 -332 l0 -78 279 0 278 0 12
-42 c9 -34 99 -410 126 -525 5 -21 11 -22 103 -25 l97 -3 -49 -25 c-111 -56
-213 -182 -250 -309 -31 -107 -16 -253 38 -360 56 -110 186 -214 309 -247 77
-20 203 -18 279 6 82 25 194 103 242 168 83 114 119 256 97 382 -27 148 -127
288 -256 357 l-60 32 1400 0 1400 0 -60 -31 c-196 -101 -304 -342 -250 -553
59 -228 248 -375 480 -375 233 0 420 147 480 377 55 209 -55 451 -250 551
l-60 31 113 1 112 0 0 105 0 105 -1875 0 -1875 0 -5 23 c-3 12 -21 87 -40 167
-19 80 -37 155 -40 168 l-5 22 2115 0 2115 0 0 75 c0 58 35 236 166 842 91
422 221 1027 289 1343 377 1752 315 1470 636 2883 l174 767 1427 0 1428 0 0
100 0 100 -1510 0 -1510 0 -5 -22z m-4825 -1436 c0 -16 20 -307 45 -648 25
-340 45 -620 45 -621 0 -2 -410 -2 -912 -1 l-911 3 -48 220 c-26 121 -88 410
-138 643 -50 232 -91 424 -91 427 0 3 452 5 1005 5 l1005 0 0 -28z m2189 -619
c-26 -357 -48 -649 -48 -650 -1 -2 -410 -3 -910 -3 l-910 0 -5 53 c-9 77 -86
1166 -86 1210 l0 37 1003 0 1003 0 -47 -647z m2280 635 c0 -7 -62 -299 -137
-648 l-138 -635 -913 -3 -914 -2 6 42 c3 24 25 316 48 651 l43 607 1003 0
c796 0 1003 -3 1002 -12z m-4359 -1561 c0 -7 20 -293 45 -636 25 -343 45 -630
45 -637 0 -12 -124 -14 -798 -14 l-798 0 -137 638 c-76 350 -137 643 -137 650
0 9 185 12 890 12 715 0 890 -3 890 -13z m2010 -14 c0 -33 -77 -1123 -86
-1210 l-6 -63 -799 0 c-439 0 -799 1 -799 3 0 1 -20 283 -45 627 -25 344 -45
635 -45 648 l0 22 890 0 890 0 0 -27z m2009 -10 c-5 -21 -52 -238 -104 -483
-53 -245 -112 -520 -132 -612 l-36 -168 -799 0 c-439 0 -798 3 -798 8 0 4 20
288 45 632 25 344 45 633 45 643 0 16 49 17 894 17 l894 0 -9 -37z m-3905
-1590 c10 -99 86 -1173 86 -1205 l0 -28 -685 0 -685 0 -5 23 c-6 27 -1 2 -146
677 -65 305 -121 565 -124 578 l-5 22 779 0 779 0 6 -67z m1786 55 c0 -7 -20
-294 -45 -638 -25 -344 -45 -631 -45 -637 0 -10 -145 -13 -690 -13 -650 0
-690 1 -690 18 0 9 -20 298 -45 642 -25 344 -45 628 -45 633 0 4 351 7 780 7
617 0 780 -3 780 -12z m1787 -10 c-3 -13 -51 -234 -107 -493 -158 -736 -161
-749 -166 -767 -5 -17 -47 -18 -690 -18 l-684 0 0 23 c0 12 20 303 45 647 25
344 45 626 45 628 0 1 351 2 781 2 l781 0 -5 -22z m-3892 -2325 c57 -19 131
-87 160 -148 24 -49 31 -160 15 -212 -20 -61 -81 -135 -139 -167 -144 -78
-314 -24 -396 125 -25 47 -29 64 -29 129 1 89 18 133 76 196 41 45 79 70 128
85 44 13 135 10 185 -8z m3138 1 c25 -8 66 -33 91 -55 168 -148 118 -410 -93
-490 -142 -53 -306 21 -367 166 -23 57 -21 162 6 222 61 138 219 206 363 157z"/>
<path d="M14285 25569 c-359 -56 -586 -150 -765 -316 -228 -213 -333 -487
-347 -908 -12 -373 43 -743 232 -1545 46 -195 88 -381 95 -412 12 -60 16 -261
5 -278 -8 -13 1 -13 28 2 12 6 103 44 201 84 l179 72 49 -33 c96 -66 204 -95
358 -95 165 0 300 37 478 130 l92 49 68 -23 c37 -13 97 -37 135 -54 59 -27
256 -78 432 -112 120 -23 344 -82 539 -141 109 -34 202 -57 206 -52 17 17 63
252 67 343 9 171 -29 276 -167 450 -272 345 -346 549 -419 1167 -16 132 -54
231 -220 563 -81 162 -175 367 -210 455 -35 88 -75 183 -89 210 -168 336 -535
508 -947 444z m276 -999 c213 -227 372 -402 422 -465 81 -101 149 -287 177
-480 10 -75 9 -87 -15 -180 -54 -209 -149 -401 -255 -518 l-55 -61 0 -185 c1
-102 4 -209 8 -238 l7 -51 -112 -56 c-153 -76 -278 -108 -423 -108 -93 -1
-122 3 -188 26 -43 14 -103 42 -132 60 l-53 35 9 38 c16 68 39 262 38 321 l0
57 -62 46 c-164 121 -316 414 -387 745 l-21 101 41 104 c167 420 399 762 611
903 71 47 166 87 200 84 18 -2 69 -50 190 -178z"/>
<path d="M42080 24310 c0 -5 7 -10 15 -10 11 0 15 -10 14 -32 -2 -31 -2 -31
-6 -5 -2 15 -8 27 -13 27 -4 0 -7 -130 -7 -290 1 -221 4 -290 13 -290 7 0 15
6 17 13 3 7 6 6 6 -5 1 -9 -8 -20 -19 -23 -11 -3 -20 -11 -20 -16 0 -6 5 -7
10 -4 6 3 10 1 10 -4 0 -6 -5 -11 -12 -11 -6 0 -3 -7 8 -15 16 -12 16 -14 3
-15 -13 0 -16 -11 -16 -53 0 -52 1 -53 31 -54 29 -1 31 2 33 38 2 29 -1 39
-12 39 -16 0 -21 36 -5 42 5 2 7 27 3 60 -3 32 -9 55 -13 53 -5 -3 -13 9 -19
27 -15 42 -12 50 4 13 16 -34 20 -19 5 19 -9 26 3 38 13 14 10 -23 7 80 -2
104 -15 41 -17 83 -3 81 8 -2 12 14 11 55 l-1 57 -11 -42 c-5 -24 -14 -43 -20
-43 -5 0 -6 10 -2 23 4 12 7 30 6 39 0 10 5 21 11 24 6 4 5 10 -3 15 -10 6
-10 9 -2 9 7 0 10 7 6 15 -3 9 0 37 8 62 10 37 14 43 20 27 5 -13 8 -6 8 24 1
25 -4 42 -10 42 -6 0 -9 -9 -6 -20 3 -11 1 -20 -4 -20 -5 0 -9 9 -9 20 0 13
-7 20 -20 20 -11 0 -20 -4 -20 -10z"/>
<path d="M20780 23585 c-189 -31 -325 -99 -442 -224 -95 -101 -190 -281 -148
-281 5 0 7 7 4 15 -10 25 20 58 87 98 35 20 85 62 112 91 26 30 62 65 79 78
l33 23 -34 -48 c-19 -26 -32 -49 -29 -52 9 -9 151 58 197 92 98 74 214 111
366 120 237 13 465 -95 628 -298 86 -106 184 -301 231 -459 37 -125 74 -316
63 -327 -4 -3 -323 -16 -708 -27 -587 -17 -702 -18 -709 -6 -4 7 -14 48 -21
92 -11 70 -15 78 -34 78 -32 0 -73 36 -84 73 l-9 32 -1 -30 c0 -16 10 -79 24
-140 14 -60 25 -113 25 -118 0 -4 -35 -7 -77 -5 l-78 3 -17 100 c-9 55 -18
142 -19 193 l-1 94 -33 13 c-17 8 -39 24 -48 37 -15 22 -16 17 -16 -82 -1 -95
17 -276 34 -341 l6 -26 -126 -6 c-70 -3 -130 -8 -133 -11 -3 -4 9 -24 27 -47
18 -22 31 -41 30 -43 -2 -1 -25 -17 -51 -34 -97 -64 -322 -226 -618 -446 -168
-125 -313 -233 -323 -240 -15 -12 -28 -115 -97 -817 -44 -442 -82 -815 -85
-829 -5 -26 -40 -382 -50 -510 -6 -76 -79 -826 -91 -932 -5 -46 -4 -58 7 -58
21 0 489 -38 609 -49 101 -10 444 -36 599 -46 41 -3 76 -7 79 -10 3 -2 12 -46
22 -97 l16 -93 50 2 c27 1 173 17 324 37 558 71 621 78 658 72 37 -5 74 -8
352 -26 85 -6 589 -44 1120 -85 531 -41 981 -75 1000 -76 23 -1 117 30 282 94
l246 95 287 -35 c157 -20 288 -34 290 -31 2 2 -30 143 -71 312 -41 170 -74
317 -74 327 0 10 27 33 71 59 l70 42 270 11 c266 10 271 11 267 31 -3 12 -334
843 -736 1848 -403 1004 -736 1838 -742 1852 -8 21 -15 25 -32 21 -13 -3 -286
-51 -608 -106 -396 -69 -621 -103 -695 -106 l-111 -5 -13 78 c-37 219 -139
478 -263 663 -67 100 -235 265 -318 314 -92 53 -204 94 -305 112 -109 19 -395
19 -515 0z m1022 -422 c126 -159 237 -385 289 -590 40 -159 40 -163 -16 -163
-38 0 -45 3 -49 23 -2 12 -14 76 -26 141 -41 229 -141 477 -252 631 -59 82
-22 53 54 -42z"/>
<path d="M56382 23468 c-7 -7 -12 -19 -13 -27 0 -12 -2 -11 -8 3 -17 43 -396
-510 -613 -894 l-65 -116 87 -27 c105 -34 209 -94 310 -179 l75 -64 38 54 c20
29 34 58 31 64 -4 6 -2 8 4 4 11 -7 79 80 74 96 -1 5 2 7 8 3 5 -3 13 2 17 11
3 10 15 26 25 36 16 16 17 22 6 36 -9 11 -10 14 0 8 9 -6 12 86 12 444 0 276
4 449 9 445 5 -3 13 0 17 6 4 8 3 9 -4 5 -7 -4 -12 -2 -12 3 0 6 6 11 13 12 6
0 3 4 -8 9 -11 4 -24 4 -29 -1 -6 -5 -14 -9 -20 -9 -5 0 -1 6 9 14 10 7 28 12
39 10 12 -3 15 -2 9 2 -7 3 -13 15 -13 25 0 11 4 18 8 15 5 -3 9 1 9 9 0 18 0
18 -15 3z"/>
<path d="M54983 22295 c-176 -91 -240 -203 -182 -322 l21 -43 118 0 c114 0
118 1 124 23 9 36 7 377 -3 377 -5 0 -40 -16 -78 -35z"/>
<path d="M61378 21923 l22 -4 0 -1205 c0 -801 3 -1203 10 -1199 6 3 10 2 10
-2 0 -12 -22 -33 -35 -33 -5 0 -3 5 5 10 12 7 10 9 -7 7 -16 -1 -19 -5 -14
-16 12 -20 -95 -132 -118 -124 -12 5 -13 3 -4 -7 9 -10 4 -20 -19 -46 -17 -19
-41 -35 -52 -35 -17 -1 -18 -2 -3 -6 9 -2 15 -9 11 -14 -3 -5 -10 -6 -16 -3
-6 4 -9 3 -5 -2 3 -5 -8 -25 -25 -44 -16 -19 -27 -29 -23 -22 3 6 4 12 1 12
-3 0 -10 -10 -17 -21 -9 -17 -8 -20 3 -14 7 3 5 0 -4 -8 -10 -8 -14 -18 -10
-22 4 -5 -1 -5 -10 -2 -12 4 -15 2 -12 -8 3 -7 -8 -28 -25 -46 -33 -34 -38
-44 -18 -34 6 4 4 0 -6 -8 -10 -9 -18 -18 -18 -21 3 -23 -1 -27 -16 -21 -14 5
-15 3 -6 -6 8 -8 9 -18 1 -35 -6 -13 -14 -22 -17 -19 -4 2 -7 -4 -8 -13 -1 -9
-12 -46 -26 -82 -14 -36 -28 -87 -32 -113 l-7 -47 -317 -2 c-584 -3 -900 -4
-2258 -6 l-1353 -2 0 -625 0 -625 1483 -3 1482 -2 -1482 -3 -1483 -2 0 -140 0
-140 1480 0 1480 0 0 40 c0 29 4 40 15 40 13 0 15 50 15 390 l0 390 1868 0
c1027 0 1876 3 1888 6 l21 6 -5 -3466 -4 -3466 951 0 951 0 0 3460 0 3460
1160 0 c841 0 1160 3 1160 11 0 6 -7 9 -15 6 -8 -4 -17 -2 -19 2 -3 5 -6 336
-6 737 -1 691 0 729 17 736 10 3 12 7 5 7 -8 1 -10 6 -6 14 5 7 0 6 -11 -3
-12 -9 -16 -10 -11 -2 10 17 -15 43 -154 160 -136 115 -274 220 -424 319 -92
62 -115 73 -151 73 -74 0 -196 -38 -320 -100 -412 -205 -952 -679 -1622 -1426
l-146 -162 -24 28 c-30 36 -78 66 -120 75 -24 5 -47 -1 -97 -25 -65 -32 -66
-32 -113 -16 -66 23 -94 20 -181 -15 -76 -30 -84 -31 -168 -14 -22 5 -43 1
-71 -14 l-40 -20 -194 217 c-352 395 -828 856 -1106 1071 l-83 64 0 1114 0
1113 -762 -1 c-420 -1 -753 -4 -740 -6z m480 -2022 c13 10 12 8 -3 -10 -11
-14 -14 -21 -7 -17 17 10 15 -2 -3 -20 -13 -14 -15 100 -13 1028 l3 1043 2
-1019 c3 -967 4 -1018 21 -1005z m1912 -1294 c0 -4 4 -6 10 -2 5 3 18 -3 30
-15 11 -11 20 -17 20 -14 0 4 11 -1 24 -10 14 -8 42 -25 63 -37 21 -12 102
-60 181 -106 135 -81 142 -86 127 -103 -28 -31 -48 -129 -49 -237 l-1 -103
-220 1 c-123 1 -205 5 -185 9 24 5 28 8 12 9 l-23 1 3 283 c3 248 1 284 -12
282 -8 -1 -10 0 -3 2 21 8 23 32 3 43 -11 6 -20 15 -20 20 0 6 9 5 20 -2 11
-7 20 -16 20 -21z"/>
<path d="M9665 20883 c4 -10 12 -30 17 -45 8 -23 16 -28 43 -28 18 0 72 -7
121 -15 301 -51 483 -294 525 -700 11 -106 13 -111 47 -147 20 -21 40 -38 45
-38 12 0 1 172 -18 295 -48 303 -194 527 -411 626 -73 33 -238 69 -319 69 -50
0 -56 -2 -50 -17z"/>
<path d="M12910 20689 c-118 -230 -203 -673 -199 -1034 l1 -90 49 147 c45 137
49 159 59 300 19 282 54 514 99 657 10 34 17 61 15 61 -2 0 -13 -18 -24 -41z"/>
<path d="M8960 20579 c-166 -210 -256 -502 -266 -864 -3 -127 -6 -152 -21
-162 -13 -10 -14 -13 -2 -13 21 1 52 27 44 39 -3 7 0 8 9 5 9 -3 16 -1 16 5 0
6 6 11 13 11 16 -1 -58 -66 -82 -73 -21 -5 -23 19 -3 32 7 4 8 12 2 21 -8 12
-10 12 -10 1 0 -8 -6 -11 -16 -7 -8 3 -13 2 -10 -3 3 -5 -1 -11 -9 -15 -8 -3
-14 -1 -12 3 1 5 -2 9 -8 10 -5 1 -10 -3 -10 -8 0 -5 -4 -13 -9 -18 -5 -4 -6
-3 -2 4 3 6 2 14 -4 18 -5 3 -10 1 -10 -4 0 -6 -6 -10 -12 -8 -8 1 -12 -6 -10
-18 2 -15 1 -17 -7 -6 -5 8 -7 21 -4 30 3 12 2 12 -7 -1 -6 -10 -16 -18 -23
-18 -8 0 -8 3 2 9 8 5 1 8 -23 7 -28 -1 -35 -5 -31 -16 5 -12 4 -13 -6 -2 -7
6 -20 12 -28 12 -14 0 -14 -1 -1 -10 9 -6 10 -10 3 -10 -6 0 -14 4 -18 10 -8
13 -36 0 -28 -14 3 -6 1 -6 -8 2 -7 6 -17 12 -22 12 -4 0 -5 -6 -1 -12 6 -10
4 -10 -7 0 -14 13 -33 17 -25 4 2 -4 -25 -8 -61 -9 -61 -2 -93 -14 -93 -34 0
-5 9 -9 20 -9 11 0 20 6 20 14 0 9 7 12 21 9 13 -4 16 -8 10 -13 -7 -3 -9 -15
-5 -24 6 -16 3 -17 -17 -11 -13 4 -34 13 -46 21 -20 12 -25 11 -52 -12 -17
-14 -31 -21 -31 -16 0 5 -11 8 -26 6 -21 -2 -23 0 -13 12 13 16 23 19 14 4 -9
-14 8 -12 24 3 11 10 13 10 7 0 -4 -7 -3 -13 3 -13 14 0 21 14 13 25 -9 13
-82 16 -82 3 0 -5 6 -6 13 -2 7 5 7 1 -3 -12 -22 -29 -24 -30 -17 -11 4 11 1
17 -8 18 -8 1 -21 2 -27 3 -7 1 -21 -7 -31 -18 -14 -17 -16 -17 -11 -3 4 12 1
17 -11 17 -10 0 -15 -5 -12 -13 5 -14 -19 -17 -38 -5 -16 9 -52 3 -71 -13 -16
-12 -17 -12 -9 1 8 13 7 13 -8 1 -11 -9 -17 -10 -17 -2 0 6 -5 11 -11 11 -5 0
-8 -3 -6 -7 3 -5 -11 -9 -31 -9 -21 -1 -56 -2 -79 -3 -31 -1 -43 -5 -43 -16 0
-17 -18 -19 -40 -5 -17 11 -43 -7 -33 -24 3 -6 2 -8 -2 -3 -5 4 -19 -3 -31
-14 -19 -18 -26 -20 -39 -9 -12 10 -15 10 -15 -1 0 -10 -3 -10 -12 -1 -9 9 -9
15 1 25 8 6 11 7 8 2 -3 -6 3 -12 14 -12 16 -2 18 1 9 12 -12 15 -82 9 -88 -7
-2 -5 -10 -4 -18 3 -9 8 -22 8 -41 2 -16 -6 -36 -9 -45 -7 -9 1 -22 -4 -29
-12 -8 -10 -15 -11 -25 -3 -20 16 -52 -23 -58 -73 -9 -68 -316 -4051 -313
-4055 2 -1 122 29 268 68 l264 70 235 -40 c129 -23 238 -41 242 -41 4 0 8 12
10 28 2 15 7 25 11 22 5 -3 15 6 22 20 14 25 14 25 15 3 0 -21 -10 -28 -32
-24 -5 0 -8 -10 -8 -24 0 -20 5 -25 25 -25 14 0 25 5 25 10 0 6 7 10 15 10 8
0 15 5 15 10 0 14 -11 12 -30 -5 -15 -13 -17 -13 -17 0 0 8 2 13 5 10 3 -2 14
2 26 10 11 8 25 15 31 15 5 0 3 -5 -5 -10 -9 -6 -11 -10 -3 -10 7 0 10 -7 7
-15 -6 -15 7 -21 19 -9 4 4 21 8 39 10 18 2 42 6 53 8 11 3 27 5 35 5 13 1 13
2 0 11 -9 6 -10 10 -3 10 6 0 15 -4 18 -10 3 -5 11 -10 16 -10 6 0 8 3 6 8 -3
4 18 8 46 10 28 2 57 8 64 13 6 6 17 8 23 4 5 -3 10 -1 10 5 0 17 -31 24 -41
9 -6 -9 -9 -10 -9 -2 0 18 18 26 45 19 16 -4 22 -11 19 -21 -5 -12 0 -14 27
-8 19 3 47 14 63 24 21 13 34 15 48 8 12 -6 24 -6 37 0 10 6 21 8 24 4 4 -3
14 0 24 8 13 11 15 11 9 1 -7 -11 -4 -12 10 -4 11 5 25 7 33 4 8 -3 11 0 7 6
-4 7 3 9 21 6 15 -3 28 -6 30 -7 1 -1 -12 -42 -29 -90 -17 -48 -28 -90 -26
-93 3 -2 77 7 164 22 154 26 159 26 211 10 30 -10 56 -23 58 -29 3 -7 -19
-120 -49 -252 -29 -132 -53 -240 -52 -241 1 -1 109 12 241 28 l240 29 205 -79
c113 -44 206 -79 207 -78 1 0 -12 363 -27 806 -16 443 -36 1008 -44 1255 -9
248 -18 509 -21 580 -25 668 -32 868 -31 925 l1 55 630 0 c588 0 631 1 643 18
7 9 19 17 27 17 9 0 12 6 9 18 -5 13 -4 14 4 3 8 -11 11 -9 17 8 4 13 9 20 12
18 2 -3 0 -15 -7 -26 -6 -12 -7 -21 -1 -21 5 0 12 5 14 10 3 6 4 5 3 -2 -1 -7
-12 -13 -23 -14 -11 -1 -28 -6 -39 -12 -18 -11 -17 -11 6 -11 14 1 49 -2 77
-6 52 -8 90 5 77 26 -3 5 2 6 11 2 12 -4 13 -8 5 -13 -6 -4 7 -7 29 -7 22 0
38 4 35 9 -3 4 -10 5 -16 2 -7 -4 -8 -2 -4 4 4 7 2 12 -5 12 -7 0 -10 2 -7 5
3 4 23 -4 44 -15 43 -24 39 -19 -25 34 -37 31 -46 34 -59 24 -13 -11 -14 -11
-8 0 4 7 9 38 11 70 2 31 15 97 30 146 79 270 213 461 399 570 79 46 151 119
122 124 -9 2 -48 -4 -86 -13 -74 -18 -94 -14 -85 16 8 25 -22 26 -42 2 -8 -12
-12 -13 -11 -4 2 7 -3 16 -11 19 -9 3 -11 0 -6 -8 5 -8 4 -11 -2 -7 -6 4 -9
25 -7 48 4 40 14 68 14 37 0 -19 47 -64 57 -54 4 4 1 11 -7 16 -12 8 -12 10
-1 10 10 0 11 3 2 14 -6 7 -8 21 -5 30 4 10 -1 26 -12 38 -11 12 -13 18 -5 13
11 -6 12 -2 6 21 -5 16 -8 39 -8 52 1 14 -5 22 -16 23 -10 0 -11 2 -3 6 6 2
12 14 12 24 0 11 -5 17 -10 14 -7 -4 -9 6 -7 29 2 19 0 33 -5 30 -4 -3 -6 11
-4 30 2 20 1 36 -3 36 -5 0 -7 13 -5 30 2 16 -1 32 -6 35 -6 4 -8 11 -5 16 4
5 3 18 0 30 -5 16 -10 18 -21 8 -9 -8 -14 -8 -14 -1 0 6 8 16 18 21 11 7 13
13 7 18 -6 5 -10 21 -10 36 1 42 -19 65 -43 50 -20 -12 -32 -8 -32 11 0 6 4 4
10 -4 8 -12 10 -12 15 3 6 13 11 14 26 6 15 -7 19 -6 19 4 0 11 -12 14 -52 10
-29 -2 -64 -4 -78 -4 -23 0 -22 -1 8 -14 17 -8 32 -15 32 -17 0 -2 -15 -4 -33
-5 -26 -1 -28 0 -12 7 l20 9 -20 1 c-11 1 -28 3 -37 5 -12 2 -15 -2 -11 -13 4
-15 3 -15 -10 1 -15 17 -33 24 -23 8 3 -5 -1 -12 -10 -15 -23 -9 -26 -8 -18 7
5 7 0 6 -11 -3 -11 -9 -16 -10 -11 -2 4 7 2 12 -8 12 -8 0 -18 -5 -21 -10 -3
-6 -18 -8 -32 -5 -14 2 -31 1 -37 -2 -6 -4 -22 -8 -36 -10 -49 -5 -65 -9 -79
-18 -10 -5 -12 -4 -7 3 4 7 2 12 -3 12 -6 0 -11 -4 -11 -9 0 -6 -9 -8 -20 -6
-22 4 -28 -10 -7 -18 7 -3 5 -6 -5 -6 -10 -1 -18 6 -18 14 0 8 -5 15 -11 15
-5 0 -8 -3 -5 -8 2 -4 -10 -7 -28 -6 -48 3 -87 -7 -83 -20 2 -6 11 -11 20 -11
24 0 29 -11 6 -12 -11 -1 -25 7 -31 17 -11 17 -13 17 -26 2 -7 -9 -11 -12 -7
-5 7 15 -62 15 -71 1 -3 -5 -14 -6 -25 -3 -10 4 -27 1 -36 -5 -16 -10 -16 -11
-1 -6 11 3 15 1 12 -9 -3 -7 3 -16 14 -19 11 -4 23 -14 26 -22 3 -8 10 -12 16
-9 5 3 10 -1 10 -9 0 -15 12 -21 33 -17 5 1 6 -2 3 -7 -6 -11 70 -10 80 1 4 4
12 7 18 7 6 0 3 -5 -7 -11 -17 -10 -16 -12 3 -36 11 -14 20 -31 20 -37 0 -7
-3 -7 -8 -1 -4 6 -14 11 -22 13 -9 2 -2 -10 14 -27 17 -17 34 -31 40 -31 5 0
6 3 3 6 -13 13 13 42 39 42 17 0 22 -3 13 -8 -6 -5 -19 -5 -28 -2 -14 5 -14 4
-2 -11 12 -15 12 -17 -2 -11 -21 8 -16 -17 8 -42 37 -37 95 -75 105 -69 5 3 7
0 4 -8 -3 -10 23 -43 70 -91 68 -69 92 -83 129 -77 5 1 6 -3 3 -8 -3 -5 -16
-7 -29 -4 -21 4 -22 4 -3 -11 21 -17 42 -21 49 -8 2 4 2 2 1 -5 -2 -6 2 -14 9
-16 7 -2 2 -2 -11 0 -21 3 -20 1 10 -26 26 -23 36 -27 47 -18 12 10 13 9 6 -2
-6 -11 -4 -13 11 -7 15 6 16 5 7 -5 -10 -10 -9 -15 4 -24 16 -12 30 -4 80 44
8 7 17 10 21 6 4 -4 1 -10 -5 -12 -7 -3 -13 -11 -13 -18 0 -7 -7 -15 -15 -19
-22 -8 -18 -33 6 -47 16 -8 20 -8 14 1 -6 9 -3 9 12 1 14 -7 23 -7 33 2 10 10
10 8 0 -8 -7 -11 -46 -46 -86 -78 -124 -97 -244 -265 -319 -448 -19 -46 -39
-85 -45 -87 -6 -2 -20 8 -31 22 -31 39 -76 69 -85 55 -5 -8 -3 -9 6 -4 9 6 11
4 5 -5 -6 -9 -4 -11 5 -5 9 5 11 4 6 -4 -5 -8 -15 -6 -33 9 -14 11 -30 17 -36
13 -5 -3 -7 -1 -3 5 3 5 0 12 -6 15 -7 3 -3 4 9 4 12 -1 20 -4 17 -8 -2 -4 3
-9 11 -13 20 -7 19 1 -3 29 -20 25 -36 19 -61 -20 -8 -12 -11 -14 -8 -4 3 9 0
22 -6 28 -9 9 -8 10 7 5 13 -5 17 -4 12 4 -3 6 -2 13 3 16 10 7 -35 61 -50 61
-5 0 -16 10 -25 23 -12 17 -23 22 -44 18 -22 -3 -27 -1 -23 11 5 12 7 12 14 1
5 -7 9 -8 9 -3 0 13 -45 55 -59 55 -6 0 -11 5 -11 11 0 6 -9 8 -22 4 -18 -5
-20 -4 -8 4 13 9 13 12 -2 27 -15 15 -19 15 -35 3 -16 -13 -17 -12 -5 3 11 14
10 18 -9 31 -11 9 -32 13 -44 11 -13 -2 -26 0 -30 6 -4 6 1 7 12 3 14 -5 16
-3 6 7 -6 7 -9 18 -7 25 7 16 -52 59 -61 45 -3 -5 -14 -9 -23 -9 -15 1 -15 2
1 6 24 6 22 15 -13 48 -16 16 -30 25 -30 21 0 -5 -7 -3 -15 4 -8 6 -18 9 -23
6 -5 -3 -9 1 -9 8 0 8 7 12 16 9 9 -3 0 9 -19 25 -19 17 -37 27 -38 21 -2 -5
-8 -7 -13 -3 -5 3 -9 1 -9 -5 0 -15 18 -23 25 -11 4 6 11 8 16 5 14 -9 -7 -42
-31 -48 -22 -6 -37 8 -20 18 5 3 10 11 10 16 0 6 -6 7 -12 2 -8 -4 -6 4 4 18
9 15 13 31 8 38 -8 14 -67 12 -90 -3 -12 -8 -13 -7 -3 3 6 7 9 19 7 26 -7 18
9 26 26 13 12 -8 12 -9 -2 -4 -10 3 -18 1 -18 -4 0 -14 13 -18 34 -11 17 6 15
10 -14 34 -17 15 -37 24 -42 21 -6 -4 -9 -3 -6 2 3 5 0 15 -8 22 -12 10 -14
10 -14 -2 0 -8 -5 -18 -12 -22 -7 -5 -8 -3 -4 5 5 8 2 11 -9 9 -10 -2 -19 4
-20 13 -2 9 3 16 11 16 7 0 11 -4 8 -9 -3 -4 0 -8 5 -8 17 0 13 26 -6 41 -15
12 -16 12 -8 -1 4 -8 -3 -3 -18 13 -25 26 -44 37 -33 18 4 -5 -1 -8 -10 -7
-22 3 -38 33 -23 42 7 4 9 3 6 -2 -3 -6 -2 -16 2 -23 6 -10 10 -9 14 3 8 20
-16 35 -64 39 -11 1 -16 9 -14 24 2 16 -7 30 -27 45 -32 22 -64 50 -117 101
-18 17 -31 27 -28 21 4 -6 0 -11 -7 -11 -8 0 -12 7 -8 15 3 9 1 13 -5 9 -6 -4
-13 3 -16 14 -3 12 -10 19 -15 16 -4 -3 -15 3 -22 14 -8 10 -21 19 -30 18 -10
0 -11 -2 -2 -6 6 -2 10 -9 7 -14 -4 -5 -12 -3 -19 4 -8 6 -13 14 -11 17 2 3
-14 4 -36 2 -21 -2 -37 -8 -34 -13 3 -4 13 -5 23 -2 9 3 14 3 11 -1 -10 -11
-49 -16 -49 -5 0 5 -5 9 -11 9 -5 0 -8 -4 -5 -8 3 -5 -1 -9 -9 -9 -8 0 -12 4
-9 9 6 10 -10 11 -20 1 -4 -5 -24 -8 -44 -8 -37 0 -37 -1 -36 -40 l0 -40 -57
0 c-31 0 -55 4 -52 8 3 5 11 6 19 3 17 -7 82 49 71 60 -4 5 -12 2 -17 -6 -7
-11 -10 -12 -10 -2 0 8 -5 10 -12 5 -7 -4 -21 -6 -30 -5 -10 2 -18 -1 -18 -6
0 -6 -7 -13 -16 -16 -15 -6 -15 -4 -3 11 12 15 12 16 -1 8 -8 -5 -28 -10 -45
-10 -67 -4 -76 -5 -70 -15 3 -5 1 -10 -4 -10 -6 0 -11 4 -11 8 0 5 -13 7 -30
4 -16 -2 -28 -8 -25 -12 3 -5 13 -6 23 -4 9 3 28 1 41 -4 20 -7 21 -10 8 -15
-10 -4 -17 -2 -17 3 0 6 -9 10 -20 10 -11 0 -20 -4 -20 -10 0 -5 -8 -10 -17
-10 -14 0 -15 2 -5 9 10 6 10 10 -3 21 -12 10 -15 10 -16 -1 -1 -8 -1 -18 1
-24 1 -5 -7 -1 -18 9 -20 17 -20 17 -25 -1 -4 -17 -5 -17 -6 1 -1 15 -6 17
-28 11 -15 -3 -31 -11 -34 -17 -4 -7 -9 -6 -13 1 -4 6 -13 11 -19 11 -7 0 -6
-4 3 -11 11 -7 4 -9 -28 -6 -31 3 -48 0 -59 -12 -15 -14 -16 -2 -10 144 6 174
22 281 62 420 33 116 113 279 170 349 l45 55 -21 36 c-12 19 -25 35 -30 35 -5
0 -27 -23 -49 -51z"/>
<path d="M67935 19459 c-4 -6 -12 -8 -19 -6 -8 3 -10 -179 -8 -726 1 -401 4
-728 7 -725 3 2 5 314 5 692 0 605 2 687 15 676 11 -9 15 -10 15 -1 0 7 4 10
9 6 5 -3 13 0 17 7 4 7 4 10 0 6 -12 -10 -34 15 -29 32 4 13 3 13 -5 0 -6 -8
-8 -18 -6 -22 3 -4 0 -8 -5 -8 -15 0 -14 20 3 53 14 26 14 39 1 16z"/>
<path d="M12520 18956 c-21 -55 -21 -74 0 -147 36 -128 37 -302 4 -502 l-7
-38 39 3 39 3 11 65 c18 100 17 357 -2 447 -16 76 -48 170 -64 187 -6 6 -13
-2 -20 -18z"/>
<path d="M12449 18778 c-21 -43 -27 -68 -27 -135 -2 -92 -21 -198 -57 -302
l-24 -71 39 0 39 0 25 78 c13 43 30 107 37 142 14 72 15 269 2 313 -8 28 -8
28 -34 -25z"/>
<path d="M15635 17634 c-461 -243 -934 -395 -1420 -456 -55 -6 -203 -12 -330
-12 -248 0 -389 15 -555 58 l-90 23 0 -36 c0 -37 26 -210 32 -217 9 -8 240
-63 328 -78 543 -91 1183 6 1845 282 108 45 431 204 447 220 7 7 -100 274
-115 288 -1 1 -65 -31 -142 -72z"/>
<path d="M37510 16969 c-612 -51 -1159 -428 -1431 -989 -52 -109 -86 -202
-118 -331 -43 -171 -54 -284 -48 -487 6 -184 22 -284 70 -447 140 -464 487
-866 926 -1072 490 -231 1054 -225 1531 16 779 392 1151 1285 880 2111 -88
269 -220 480 -430 691 -302 303 -673 474 -1106 509 -138 11 -135 11 -274 -1z
m462 -363 c544 -127 957 -550 1075 -1099 26 -117 25 -448 0 -565 -61 -282
-186 -512 -392 -717 -206 -207 -437 -331 -740 -397 -96 -21 -430 -17 -534 6
-437 95 -787 363 -988 755 -319 625 -120 1402 462 1800 189 129 362 199 590
237 129 22 394 12 527 -20z"/>
<path d="M37940 15405 c-212 -212 -389 -385 -395 -385 -5 0 -133 123 -282 272
l-273 273 -117 -118 -118 -117 395 -395 395 -395 508 508 507 507 -118 118
-117 117 -385 -385z"/>
<path d="M28030 15860 l0 -260 1970 0 1970 0 0 260 0 260 -1970 0 -1970 0 0
-260z"/>
<path d="M28030 14590 l0 -260 2915 0 2915 0 0 260 0 260 -2915 0 -2915 0 0
-260z"/>
<path d="M32830 12200 l0 -100 795 0 795 0 0 100 0 100 -795 0 -795 0 0 -100z"/>
<path d="M18510 11625 l0 -565 3614 0 3613 0 -17 64 c-45 159 -50 231 -50 658
l0 408 -3580 0 -3580 0 0 -565z"/>
<path d="M14164 6162 c-70 -89 -125 -174 -131 -203 -3 -15 -43 -71 -90 -125
-155 -181 -293 -311 -473 -449 -202 -153 -324 -274 -372 -367 -27 -54 -32 -74
-33 -136 0 -73 0 -74 41 -111 79 -75 249 -107 504 -98 170 7 299 25 405 58 93
29 148 85 251 259 99 170 162 236 254 269 120 43 211 126 252 230 18 45 22 76
23 161 0 92 -4 117 -32 200 -41 123 -52 173 -60 266 -6 71 -7 75 -27 69 -152
-51 -280 -66 -358 -45 -21 6 -54 26 -73 45 l-36 33 -45 -56z"/>
<path d="M15490 6138 c-75 -116 -112 -189 -106 -212 8 -32 -89 -209 -188 -339
-33 -45 -90 -99 -161 -155 -60 -48 -157 -132 -214 -187 -168 -162 -241 -285
-244 -407 -2 -64 16 -97 73 -135 115 -79 453 -80 729 -3 155 43 211 94 322
292 65 116 89 147 199 262 244 255 277 369 193 661 -22 77 -48 174 -58 216
l-18 77 -44 -19 c-124 -53 -274 -65 -350 -28 -24 12 -48 30 -54 40 -5 10 -13
19 -17 19 -4 0 -32 -37 -62 -82z"/>
</g>
</svg>
